<?xml version="1.0" encoding="UTF-8"?>
<svg width="100" height="100" viewBox="0 0 100 100" xmlns="http://www.w3.org/2000/svg">
  <rect width="100" height="100" rx="20" fill="#4f46e5" />
  <g transform="translate(22, 25)">
    <path d="M56 8H38V0H22v8H4c-2.2 0-4 1.8-4 4v44c0 2.2 1.8 4 4 4h52c2.2 0 4-1.8 4-4V12c0-2.2-1.8-4-4-4zM22 4h12v4H22V4zm28 48H10c-1.1 0-2-0.9-2-2s0.9-2 2-2h40c1.1 0 2 0.9 2 2s-0.9 2-2 2zm0-10H10c-1.1 0-2-0.9-2-2s0.9-2 2-2h40c1.1 0 2 0.9 2 2s-0.9 2-2 2zm0-10H10c-1.1 0-2-0.9-2-2s0.9-2 2-2h40c1.1 0 2 0.9 2 2s-0.9 2-2 2z" fill="white" />
  </g>
</svg>